<svg width="27" height="27" viewBox="0 0 27 27" fill="none" xmlns="http://www.w3.org/2000/svg">
<path d="M22.9667 3.97208C20.7622 1.74989 17.8526 0.367617 14.7396 0.0635597C11.6266 -0.240497 8.50519 0.552718 5.91353 2.30645C3.32188 4.06019 1.42239 6.66455 0.542536 9.67053C-0.337316 12.6765 -0.14239 15.8957 1.09371 18.7732C1.22254 19.0407 1.26481 19.3417 1.21463 19.6344L0.0323042 25.3261C-0.0132472 25.5443 -0.00394553 25.7704 0.0593734 25.9841C0.122692 26.1979 0.238044 26.3925 0.395062 26.5505C0.52378 26.6785 0.677038 26.779 0.8456 26.8461C1.01416 26.9132 1.19454 26.9454 1.37585 26.9407H1.64456L7.39495 25.7836C7.68721 25.7484 7.98358 25.7901 8.25482 25.9047C11.128 27.1426 14.3424 27.3378 17.3439 26.4567C20.3454 25.5755 22.9459 23.6732 24.697 21.0776C26.4481 18.4821 27.2401 15.356 26.9365 12.2383C26.6329 9.12067 25.2527 6.20676 23.0339 3.99899L22.9667 3.97208ZM8.09359 14.8307C7.82787 14.8307 7.5681 14.7518 7.34716 14.604C7.12621 14.4561 6.95401 14.246 6.85232 14.0001C6.75063 13.7542 6.72402 13.4837 6.77586 13.2227C6.8277 12.9616 6.95566 12.7219 7.14356 12.5337C7.33146 12.3455 7.57086 12.2174 7.83148 12.1655C8.0921 12.1135 8.36225 12.1402 8.60775 12.242C8.85325 12.3439 9.06308 12.5163 9.21071 12.7376C9.35834 12.9589 9.43714 13.219 9.43714 13.4852C9.43714 13.842 9.29559 14.1843 9.04363 14.4366C8.79166 14.689 8.44993 14.8307 8.09359 14.8307ZM13.4678 14.8307C13.2021 14.8307 12.9423 14.7518 12.7214 14.604C12.5004 14.4561 12.3282 14.246 12.2265 14.0001C12.1248 13.7542 12.0982 13.4837 12.1501 13.2227C12.2019 12.9616 12.3299 12.7219 12.5178 12.5337C12.7057 12.3455 12.9451 12.2174 13.2057 12.1655C13.4663 12.1135 13.7364 12.1402 13.9819 12.242C14.2274 12.3439 14.4373 12.5163 14.5849 12.7376C14.7325 12.9589 14.8113 13.219 14.8113 13.4852C14.8113 13.842 14.6698 14.1843 14.4178 14.4366C14.1659 14.689 13.8241 14.8307 13.4678 14.8307ZM18.842 14.8307C18.5763 14.8307 18.3165 14.7518 18.0955 14.604C17.8746 14.4561 17.7024 14.246 17.6007 14.0001C17.499 13.7542 17.4724 13.4837 17.5243 13.2227C17.5761 12.9616 17.7041 12.7219 17.892 12.5337C18.0798 12.3455 18.3192 12.2174 18.5799 12.1655C18.8405 12.1135 19.1106 12.1402 19.3561 12.242C19.6016 12.3439 19.8115 12.5163 19.9591 12.7376C20.1067 12.9589 20.1855 13.219 20.1855 13.4852C20.1855 13.842 20.044 14.1843 19.792 14.4366C19.5401 14.689 19.1983 14.8307 18.842 14.8307Z" fill="#FA9884"/>
</svg>
