<svg width="285" height="34" viewBox="0 0 285 34" fill="none" xmlns="http://www.w3.org/2000/svg">
<path d="M13.374 3.56721C12.603 2.81093 11.397 2.81093 10.626 3.56721L0.93896 13.0694C0.3396 13.6574 0 14.4754 0 15.3312V26.8875C0 28.6064 1.34314 30 3 30H6C7.65686 30 9 28.6064 9 26.8875V21.6999C9 21.127 9.44772 20.6625 10 20.6625H14C14.5523 20.6625 15 21.127 15 21.6999V26.8875C15 28.6064 16.3432 30 18 30H21C22.6568 30 24 28.6064 24 26.8875V15.3312C24 14.4754 23.6604 13.6574 23.061 13.0694L13.374 3.56721Z" fill="#FA9884"/>
<path d="M84.6464 26.3432L79.5831 21.0861C79.3546 20.8488 79.0448 20.717 78.7198 20.717H77.892C79.2937 18.8557 80.1265 16.5145 80.1265 13.9677C80.1265 7.90909 75.3985 3 69.5633 3C63.7281 3 59 7.90909 59 13.9677C59 20.0263 63.7281 24.9354 69.5633 24.9354C72.0162 24.9354 74.271 24.0706 76.0637 22.6153V23.4748C76.0637 23.8122 76.1907 24.1339 76.4192 24.3712L81.4825 29.6283C81.9599 30.1239 82.7318 30.1239 83.2041 29.6283L84.6413 28.136C85.1187 27.6404 85.1187 26.8389 84.6464 26.3432ZM69.5633 20.717C65.9728 20.717 63.0628 17.7009 63.0628 13.9677C63.0628 10.2397 65.9677 7.21834 69.5633 7.21834C73.1538 7.21834 76.0637 10.2344 76.0637 13.9677C76.0637 17.6956 73.1588 20.717 69.5633 20.717Z" fill="#9E9898"/>
<path d="M120 0H155V34H120V0Z" fill="#575353"/>
<path d="M146.25 4.25H128.75C127.59 4.25 126.477 4.69777 125.656 5.4948C124.836 6.29183 124.375 7.37283 124.375 8.5V25.5C124.375 26.6272 124.836 27.7082 125.656 28.5052C126.477 29.3022 127.59 29.75 128.75 29.75H146.25C147.41 29.75 148.523 29.3022 149.344 28.5052C150.164 27.7082 150.625 26.6272 150.625 25.5V8.5C150.625 7.37283 150.164 6.29183 149.344 5.4948C148.523 4.69777 147.41 4.25 146.25 4.25ZM141.875 18.4167H138.958V21.25C138.958 21.6257 138.805 21.9861 138.531 22.2517C138.258 22.5174 137.887 22.6667 137.5 22.6667C137.113 22.6667 136.742 22.5174 136.469 22.2517C136.195 21.9861 136.042 21.6257 136.042 21.25V18.4167H133.125C132.738 18.4167 132.367 18.2674 132.094 18.0017C131.82 17.7361 131.667 17.3757 131.667 17C131.667 16.6243 131.82 16.2639 132.094 15.9983C132.367 15.7326 132.738 15.5833 133.125 15.5833H136.042V12.75C136.042 12.3743 136.195 12.0139 136.469 11.7483C136.742 11.4826 137.113 11.3333 137.5 11.3333C137.887 11.3333 138.258 11.4826 138.531 11.7483C138.805 12.0139 138.958 12.3743 138.958 12.75V15.5833H141.875C142.262 15.5833 142.633 15.7326 142.906 15.9983C143.18 16.2639 143.333 16.6243 143.333 17C143.333 17.3757 143.18 17.7361 142.906 18.0017C142.633 18.2674 142.262 18.4167 141.875 18.4167Z" fill="#9E9898"/>
<path d="M190 0H227V34H190V0Z" fill="#575353"/>
<path d="M208.5 15.5833C209.72 15.5833 210.912 15.251 211.926 14.6283C212.94 14.0057 213.731 13.1207 214.197 12.0852C214.664 11.0498 214.786 9.91038 214.548 8.81116C214.31 7.71193 213.723 6.70223 212.86 5.90973C211.998 5.11723 210.899 4.57754 209.703 4.35889C208.507 4.14024 207.267 4.25245 206.14 4.68135C205.013 5.11025 204.05 5.83656 203.373 6.76844C202.695 7.70032 202.333 8.79591 202.333 9.91667C202.333 11.4196 202.983 12.8609 204.14 13.9236C205.296 14.9863 206.864 15.5833 208.5 15.5833Z" fill="#9E9898"/>
<path d="M217.75 29.75C218.159 29.75 218.551 29.6007 218.84 29.3351C219.129 29.0694 219.292 28.7091 219.292 28.3333C219.292 25.7033 218.155 23.1809 216.131 21.3212C214.107 19.4615 211.362 18.4167 208.5 18.4167C205.638 18.4167 202.893 19.4615 200.869 21.3212C198.845 23.1809 197.708 25.7033 197.708 28.3333C197.708 28.7091 197.871 29.0694 198.16 29.3351C198.449 29.6007 198.841 29.75 199.25 29.75H217.75Z" fill="#9E9898"/>
<path d="M273.5 30C275.175 30 276.576 28.9158 277.101 27.4H269.899C270.424 28.9158 271.825 30 273.5 30ZM282.444 20.3618V14.4C282.444 10.2179 279.653 6.6949 275.87 5.6354C275.496 4.676 274.581 4 273.5 4C272.419 4 271.504 4.676 271.13 5.6354C267.348 6.6962 264.556 10.2179 264.556 14.4V20.3618L262.374 22.5809C262.134 22.824 262 23.1542 262 23.5V24.8C262 25.5189 262.571 26.1 263.278 26.1H283.722C284.429 26.1 285 25.5189 285 24.8V23.5C285 23.1542 284.866 22.824 284.626 22.5809L282.444 20.3618Z" fill="#9E9898"/>
</svg>
