<svg width="329" height="28" viewBox="0 0 329 28" fill="none" xmlns="http://www.w3.org/2000/svg">
<path d="M11.6406 4L2 13.5L11.6406 23M29 13.5001H2.27007" stroke="#292D32" stroke-width="3" stroke-miterlimit="10" stroke-linecap="round" stroke-linejoin="round"/>
<path d="M328.655 17.3645L326.233 15.9758C326.477 14.6661 326.477 13.3226 326.233 12.0129L328.655 10.6242C328.934 10.4661 329.059 10.1387 328.968 9.83389C328.337 7.82422 327.262 6.00648 325.857 4.49358C325.641 4.26213 325.289 4.20568 325.016 4.36375L322.593 5.75245C321.576 4.8831 320.404 4.21133 319.136 3.77101V0.999243C319.136 0.683115 318.914 0.406503 318.602 0.338761C316.515 -0.12414 314.377 -0.10156 312.392 0.338761C312.079 0.406503 311.858 0.683115 311.858 0.999243V3.77665C310.595 4.22262 309.424 4.89439 308.4 5.7581L305.984 4.36939C305.705 4.21133 305.358 4.26213 305.142 4.49923C303.738 6.00648 302.663 7.82422 302.032 9.83953C301.935 10.1444 302.066 10.4718 302.344 10.6299L304.767 12.0186C304.522 13.3282 304.522 14.6718 304.767 15.9814L302.344 17.3701C302.066 17.5282 301.941 17.8556 302.032 18.1605C302.663 20.1701 303.738 21.9879 305.142 23.5008C305.358 23.7322 305.711 23.7887 305.984 23.6306L308.406 22.2419C309.424 23.1113 310.595 23.783 311.863 24.2234V27.0008C311.863 27.3169 312.085 27.5935 312.398 27.6612C314.485 28.1241 316.623 28.1016 318.607 27.6612C318.92 27.5935 319.142 27.3169 319.142 27.0008V24.2234C320.404 23.7774 321.576 23.1056 322.599 22.2419L325.022 23.6306C325.3 23.7887 325.647 23.7379 325.863 23.5008C327.268 21.9935 328.342 20.1758 328.974 18.1605C329.059 17.85 328.934 17.5226 328.655 17.3645ZM315.497 18.5105C312.989 18.5105 310.948 16.4839 310.948 13.9944C310.948 11.5048 312.989 9.47824 315.497 9.47824C318.005 9.47824 320.046 11.5048 320.046 13.9944C320.046 16.4839 318.005 18.5105 315.497 18.5105Z" fill="#292D32"/>
<path d="M113.454 5.27273H117.815L122.422 16.5114H122.618L127.224 5.27273H131.586V22H128.156V11.1126H128.017L123.688 21.9183H121.352L117.023 11.0717H116.884V22H113.454V5.27273ZM136.582 26.7045C136.141 26.7045 135.728 26.6692 135.341 26.5984C134.96 26.533 134.644 26.4486 134.394 26.3452L135.178 23.7479C135.586 23.8731 135.954 23.9412 136.28 23.9521C136.612 23.9629 136.898 23.8867 137.138 23.7234C137.383 23.56 137.582 23.2823 137.734 22.8903L137.938 22.3594L133.438 9.45455H137.097L139.694 18.6676H139.825L142.447 9.45455H146.13L141.254 23.3558C141.02 24.031 140.702 24.6191 140.299 25.12C139.901 25.6264 139.398 26.0157 138.788 26.288C138.178 26.5657 137.443 26.7045 136.582 26.7045ZM153.3 22V5.27273H159.899C161.168 5.27273 162.249 5.51503 163.142 5.99964C164.035 6.47881 164.715 7.14583 165.183 8.00071C165.657 8.85014 165.894 9.83026 165.894 10.9411C165.894 12.0518 165.654 13.032 165.175 13.8814C164.696 14.7308 164.002 15.3924 163.093 15.8661C162.189 16.3398 161.094 16.5767 159.809 16.5767H155.603V13.7425H159.237C159.918 13.7425 160.479 13.6255 160.92 13.3913C161.366 13.1518 161.699 12.8223 161.916 12.4031C162.14 11.9783 162.251 11.491 162.251 10.9411C162.251 10.3857 162.14 9.90104 161.916 9.48722C161.699 9.06794 161.366 8.74396 160.92 8.51527C160.473 8.28113 159.907 8.16406 159.221 8.16406H156.836V22H153.3ZM168.126 22V9.45455H171.499V11.6435H171.63C171.858 10.8648 172.242 10.2768 172.781 9.87926C173.32 9.47633 173.941 9.27486 174.644 9.27486C174.818 9.27486 175.006 9.28575 175.207 9.30753C175.409 9.32931 175.586 9.35926 175.738 9.39737V12.4847C175.575 12.4357 175.349 12.3922 175.06 12.354C174.772 12.3159 174.507 12.2969 174.268 12.2969C173.756 12.2969 173.299 12.4085 172.896 12.6317C172.498 12.8495 172.182 13.1545 171.948 13.5465C171.72 13.9386 171.605 14.3905 171.605 14.9023V22H168.126ZM182.621 22.245C181.353 22.245 180.255 21.9755 179.33 21.4364C178.41 20.8919 177.699 20.1351 177.198 19.1658C176.697 18.1912 176.447 17.0613 176.447 15.7763C176.447 14.4804 176.697 13.3478 177.198 12.3786C177.699 11.4039 178.41 10.647 179.33 10.108C180.255 9.56345 181.353 9.29119 182.621 9.29119C183.89 9.29119 184.984 9.56345 185.905 10.108C186.83 10.647 187.544 11.4039 188.045 12.3786C188.546 13.3478 188.796 14.4804 188.796 15.7763C188.796 17.0613 188.546 18.1912 188.045 19.1658C187.544 20.1351 186.83 20.8919 185.905 21.4364C184.984 21.9755 183.89 22.245 182.621 22.245ZM182.638 19.5497C183.215 19.5497 183.697 19.3864 184.083 19.0597C184.47 18.7275 184.761 18.2756 184.957 17.7038C185.159 17.1321 185.259 16.4814 185.259 15.7518C185.259 15.0221 185.159 14.3714 184.957 13.7997C184.761 13.228 184.47 12.776 184.083 12.4439C183.697 12.1117 183.215 11.9457 182.638 11.9457C182.055 11.9457 181.565 12.1117 181.167 12.4439C180.775 12.776 180.479 13.228 180.277 13.7997C180.081 14.3714 179.983 15.0221 179.983 15.7518C179.983 16.4814 180.081 17.1321 180.277 17.7038C180.479 18.2756 180.775 18.7275 181.167 19.0597C181.565 19.3864 182.055 19.5497 182.638 19.5497ZM197.805 9.45455V12.0682H190.062V9.45455H197.805ZM191.834 22V8.54794C191.834 7.63861 192.011 6.88447 192.365 6.28551C192.725 5.68655 193.215 5.23733 193.835 4.93785C194.456 4.63837 195.161 4.48864 195.951 4.48864C196.484 4.48864 196.972 4.52947 197.413 4.61115C197.859 4.69283 198.191 4.76633 198.409 4.83168L197.789 7.44531C197.652 7.40175 197.484 7.36091 197.282 7.3228C197.086 7.28468 196.885 7.26562 196.678 7.26562C196.166 7.26562 195.809 7.38542 195.608 7.625C195.406 7.85914 195.306 8.18857 195.306 8.61328V22H191.834ZM199.93 22V9.45455H203.41V22H199.93ZM201.678 7.83736C201.161 7.83736 200.717 7.66584 200.347 7.3228C199.982 6.97431 199.8 6.55776 199.8 6.07315C199.8 5.59399 199.982 5.18288 200.347 4.83984C200.717 4.49136 201.161 4.31712 201.678 4.31712C202.196 4.31712 202.637 4.49136 203.002 4.83984C203.372 5.18288 203.557 5.59399 203.557 6.07315C203.557 6.55776 203.372 6.97431 203.002 7.3228C202.637 7.66584 202.196 7.83736 201.678 7.83736ZM209.676 5.27273V22H206.197V5.27273H209.676ZM218.181 22.245C216.891 22.245 215.78 21.9837 214.849 21.4609C213.923 20.9328 213.21 20.1868 212.709 19.223C212.208 18.2538 211.957 17.1076 211.957 15.7844C211.957 14.494 212.208 13.3614 212.709 12.3867C213.21 11.4121 213.915 10.6525 214.824 10.108C215.739 9.56345 216.812 9.29119 218.042 9.29119C218.87 9.29119 219.64 9.4246 220.354 9.69141C221.072 9.95277 221.699 10.3475 222.232 10.8757C222.771 11.4039 223.19 12.0682 223.49 12.8686C223.789 13.6636 223.939 14.5947 223.939 15.6619V16.6175H213.346V14.4613H220.664C220.664 13.9603 220.555 13.5166 220.337 13.13C220.119 12.7434 219.817 12.4412 219.431 12.2234C219.05 12.0001 218.606 11.8885 218.099 11.8885C217.571 11.8885 217.103 12.011 216.695 12.256C216.292 12.4956 215.976 12.8196 215.747 13.228C215.518 13.6309 215.401 14.0801 215.396 14.5756V16.6257C215.396 17.2464 215.51 17.7828 215.739 18.2347C215.973 18.6867 216.302 19.0352 216.727 19.2802C217.152 19.5252 217.656 19.6477 218.238 19.6477C218.625 19.6477 218.979 19.5933 219.3 19.4844C219.621 19.3755 219.896 19.2121 220.125 18.9943C220.354 18.7765 220.528 18.5097 220.648 18.1939L223.866 18.4062C223.702 19.1795 223.367 19.8546 222.861 20.4318C222.36 21.0036 221.712 21.45 220.917 21.7713C220.128 22.0871 219.216 22.245 218.181 22.245Z" fill="black"/>
</svg>
